<svg xmlns="http://www.w3.org/2000/svg" width="32" height="32" enable-background="new 0 0 32 32" viewBox="0 0 32 32"><path fill="#FFF" d="M27.5,2.5H4.563C3.423,2.5,2.5,3.423,2.5,4.563V27.5c0,1.104,0.896,2,2,2h23c1.104,0,2-0.896,2-2v-23
		C29.5,3.396,28.604,2.5,27.5,2.5z"/><path fill="#73C2E6" d="M29.446,4.054C29.302,4.021,29.154,4,29,4H5C4.448,4,4,4.448,4,5v24c0,0.154,0.021,0.302,0.054,0.446
		C4.198,29.479,4.346,29.5,4.5,29.5h13v-10h-4v-4h4v-5c0-2.209,1.791-4,4-4h4v4h-3c-0.553,0-1,0.447-1,1v4h4l-0.5,4h-3.5v10h6
		c1.104,0,2-0.896,2-2v-23C29.5,4.346,29.479,4.198,29.446,4.054z"/><path fill="#455A64" d="M15.5 30h-11C3.122 30 2 28.879 2 27.5v-18C2 9.224 2.224 9 2.5 9S3 9.224 3 9.5v18C3 28.327 3.673 29 4.5 29h11c.276 0 .5.224.5.5S15.776 30 15.5 30zM27.5 30h-6c-.276 0-.5-.224-.5-.5v-10c0-.276.224-.5.5-.5h3.059l.375-3H21.5c-.276 0-.5-.224-.5-.5v-4c0-.827.673-1.5 1.5-1.5H25V7h-3.5C19.57 7 18 8.57 18 10.5v5c0 .276-.224.5-.5.5H14v3h3.5c.276 0 .5.224.5.5v10c0 .276-.224.5-.5.5S17 29.776 17 29.5V20h-3.5c-.276 0-.5-.224-.5-.5v-4c0-.276.224-.5.5-.5H17v-4.5C17 8.019 19.019 6 21.5 6h4C25.776 6 26 6.224 26 6.5v4c0 .276-.224.5-.5.5h-3c-.276 0-.5.225-.5.5V15h3.5c.144 0 .28.062.375.169.095.107.139.251.121.394l-.5 4C25.465 19.813 25.252 20 25 20h-3v9h5.5c.827 0 1.5-.673 1.5-1.5v-23C29 3.673 28.327 3 27.5 3h-23C3.673 3 3 3.673 3 4.5v1C3 5.776 2.776 6 2.5 6S2 5.776 2 5.5v-1C2 3.121 3.122 2 4.5 2h23C28.878 2 30 3.121 30 4.5v23C30 28.879 28.878 30 27.5 30z"/><g><path fill="#455A64" d="M3,7.5C3,7.775,2.775,8,2.5,8l0,0C2.225,8,2,7.775,2,7.5l0,0C2,7.225,2.225,7,2.5,7l0,0
								C2.775,7,3,7.225,3,7.5L3,7.5z"/></g></svg>