<?xml version="1.0" encoding="UTF-8"?>
<svg xmlns="http://www.w3.org/2000/svg" xmlns:xlink="http://www.w3.org/1999/xlink" width="778pt" height="370.4pt" viewBox="0 0 778 370.4" version="1.1">
<defs>
<clipPath id="clip1">
  <path d="M 0 0 L 778 0 L 778 370.398438 L 0 370.398438 Z M 0 0 "/>
</clipPath>
</defs>
<g id="surface1">
<g clip-path="url(#clip1)" clip-rule="nonzero">
<path style=" stroke:none;fill-rule:evenodd;fill:rgb(93.359375%,44.309998%,1.960754%);fill-opacity:1;" d="M 0.0742188 370.363281 L 778.019531 370.363281 L 778.019531 -0.0859375 L 0.0742188 -0.0859375 Z M 0.0742188 370.363281 "/>
</g>
<path style=" stroke:none;fill-rule:evenodd;fill:rgb(10.594177%,9.812927%,9.423828%);fill-opacity:1;" d="M 0.0742188 234.011719 L 695.175781 234.011719 C 735.4375 234.011719 768.378906 200.976563 768.378906 160.597656 C 768.378906 120.21875 735.4375 87.179688 695.175781 87.179688 L 0.0742188 87.179688 Z M 0.0742188 234.011719 "/>
<path style=" stroke:none;fill-rule:evenodd;fill:rgb(100%,100%,100%);fill-opacity:1;" d="M 614.804688 194.472656 L 614.804688 184.273438 L 619.1875 184.273438 C 620.730469 184.273438 621.855469 184.570313 622.570313 185.164063 C 623.285156 185.757813 623.640625 186.699219 623.640625 187.992188 C 623.640625 189.195313 623.320313 190.074219 622.679688 190.628906 C 622.035156 191.183594 621.019531 191.460938 619.621094 191.460938 L 618.476563 191.460938 L 618.476563 194.472656 Z M 618.492188 187.105469 L 618.492188 188.808594 L 619.0625 188.808594 C 619.410156 188.808594 619.679688 188.734375 619.863281 188.589844 C 620.046875 188.441406 620.140625 188.234375 620.140625 187.964844 C 620.140625 187.695313 620.046875 187.484375 619.855469 187.332031 C 619.664063 187.183594 619.402344 187.105469 619.0625 187.105469 Z M 630.003906 191.316406 C 630.515625 191.316406 630.933594 191.140625 631.246094 190.792969 C 631.558594 190.4375 631.714844 189.976563 631.714844 189.390625 C 631.714844 188.808594 631.558594 188.339844 631.246094 187.980469 C 630.933594 187.628906 630.515625 187.449219 630.003906 187.449219 C 629.484375 187.449219 629.070313 187.628906 628.753906 187.988281 C 628.4375 188.34375 628.28125 188.8125 628.28125 189.390625 C 628.28125 189.976563 628.4375 190.4375 628.753906 190.792969 C 629.070313 191.140625 629.484375 191.316406 630.003906 191.316406 Z M 635.453125 189.390625 C 635.453125 190.140625 635.324219 190.835938 635.0625 191.476563 C 634.796875 192.121094 634.410156 192.699219 633.898438 193.203125 C 633.386719 193.703125 632.796875 194.082031 632.128906 194.347656 C 631.464844 194.609375 630.753906 194.742188 630.003906 194.742188 C 629.242188 194.742188 628.527344 194.609375 627.863281 194.347656 C 627.199219 194.082031 626.609375 193.695313 626.089844 193.191406 C 625.589844 192.699219 625.203125 192.128906 624.945313 191.488281 C 624.683594 190.847656 624.554688 190.148438 624.554688 189.390625 C 624.554688 188.636719 624.683594 187.933594 624.945313 187.289063 C 625.203125 186.644531 625.589844 186.074219 626.089844 185.578125 C 626.601563 185.082031 627.191406 184.699219 627.855469 184.4375 C 628.519531 184.171875 629.234375 184.042969 630.003906 184.042969 C 630.769531 184.042969 631.484375 184.171875 632.148438 184.4375 C 632.8125 184.699219 633.402344 185.082031 633.914063 185.578125 C 634.414063 186.078125 634.800781 186.648438 635.0625 187.292969 C 635.328125 187.941406 635.453125 188.640625 635.453125 189.390625 Z M 636.070313 193.601563 L 637.242188 190.746094 C 637.765625 191.113281 638.234375 191.378906 638.644531 191.550781 C 639.058594 191.71875 639.441406 191.804688 639.796875 191.804688 C 640.050781 191.804688 640.246094 191.757813 640.390625 191.660156 C 640.535156 191.566406 640.605469 191.4375 640.605469 191.273438 C 640.605469 190.992188 640.246094 190.773438 639.527344 190.625 C 639.289063 190.574219 639.113281 190.535156 638.980469 190.507813 C 638.222656 190.320313 637.636719 189.992188 637.234375 189.519531 C 636.828125 189.046875 636.628906 188.457031 636.628906 187.75 C 636.628906 186.652344 637.019531 185.761719 637.804688 185.074219 C 638.589844 184.386719 639.621094 184.042969 640.890625 184.042969 C 641.480469 184.042969 642.054688 184.117188 642.621094 184.273438 C 643.1875 184.425781 643.761719 184.65625 644.335938 184.96875 L 643.21875 187.636719 C 642.867188 187.378906 642.515625 187.179688 642.15625 187.039063 C 641.804688 186.90625 641.453125 186.835938 641.121094 186.835938 C 640.867188 186.835938 640.671875 186.878906 640.53125 186.964844 C 640.390625 187.050781 640.320313 187.171875 640.320313 187.324219 C 640.320313 187.609375 640.828125 187.867188 641.847656 188.082031 C 642.007813 188.121094 642.136719 188.148438 642.222656 188.167969 C 642.925781 188.324219 643.476563 188.648438 643.882813 189.136719 C 644.285156 189.621094 644.488281 190.210938 644.488281 190.90625 C 644.488281 192.03125 644.078125 192.957031 643.265625 193.671875 C 642.449219 194.386719 641.390625 194.742188 640.078125 194.742188 C 639.414063 194.742188 638.746094 194.648438 638.078125 194.457031 C 637.40625 194.269531 636.742188 193.984375 636.070313 193.601563 Z M 650.675781 184.273438 L 654.402344 184.273438 L 654.402344 194.472656 L 650.675781 194.472656 Z M 656.382813 194.472656 L 656.382813 184.273438 L 659.980469 184.273438 L 663.148438 189.609375 C 663.105469 189.375 663.078125 189.109375 663.0625 188.820313 C 663.039063 188.535156 663.035156 188.15625 663.035156 187.691406 L 663.035156 184.273438 L 666.566406 184.273438 L 666.566406 194.472656 L 662.945313 194.472656 L 659.808594 189.175781 C 659.847656 189.402344 659.871094 189.648438 659.890625 189.914063 C 659.910156 190.175781 659.921875 190.46875 659.921875 190.792969 L 659.921875 194.472656 Z M 672.078125 191.355469 C 672.90625 191.351563 673.511719 191.191406 673.894531 190.871094 C 674.273438 190.554688 674.464844 190.054688 674.464844 189.378906 C 674.464844 188.714844 674.28125 188.21875 673.914063 187.894531 C 673.550781 187.566406 672.992188 187.40625 672.238281 187.40625 L 672.078125 187.40625 Z M 668.441406 194.472656 L 668.441406 184.273438 L 671.410156 184.273438 C 672.351563 184.273438 673.160156 184.324219 673.824219 184.429688 C 674.492188 184.535156 675.035156 184.695313 675.449219 184.914063 C 676.335938 185.378906 677.011719 185.992188 677.484375 186.757813 C 677.953125 187.523438 678.191406 188.398438 678.191406 189.378906 C 678.191406 190.355469 677.953125 191.222656 677.488281 191.984375 C 677.019531 192.746094 676.339844 193.363281 675.449219 193.832031 C 675.019531 194.054688 674.472656 194.21875 673.808594 194.320313 C 673.144531 194.421875 672.246094 194.472656 671.140625 194.472656 Z M 684.824219 191.316406 C 685.339844 191.316406 685.753906 191.140625 686.066406 190.792969 C 686.382813 190.4375 686.539063 189.976563 686.539063 189.390625 C 686.539063 188.808594 686.382813 188.339844 686.066406 187.980469 C 685.753906 187.628906 685.339844 187.449219 684.824219 187.449219 C 684.308594 187.449219 683.890625 187.628906 683.574219 187.988281 C 683.257813 188.34375 683.101563 188.8125 683.101563 189.390625 C 683.101563 189.976563 683.257813 190.4375 683.574219 190.792969 C 683.890625 191.140625 684.308594 191.316406 684.824219 191.316406 Z M 690.28125 189.390625 C 690.28125 190.140625 690.144531 190.835938 689.882813 191.476563 C 689.617188 192.121094 689.230469 192.699219 688.71875 193.203125 C 688.203125 193.703125 687.617188 194.082031 686.953125 194.347656 C 686.285156 194.609375 685.574219 194.742188 684.824219 194.742188 C 684.0625 194.742188 683.347656 194.609375 682.6875 194.347656 C 682.019531 194.082031 681.429688 193.695313 680.914063 193.191406 C 680.410156 192.699219 680.023438 192.128906 679.765625 191.488281 C 679.503906 190.847656 679.371094 190.148438 679.371094 189.390625 C 679.371094 188.636719 679.503906 187.933594 679.765625 187.289063 C 680.023438 186.644531 680.410156 186.074219 680.914063 185.578125 C 681.425781 185.082031 682.011719 184.699219 682.679688 184.4375 C 683.34375 184.171875 684.058594 184.042969 684.824219 184.042969 C 685.589844 184.042969 686.304688 184.171875 686.96875 184.4375 C 687.636719 184.699219 688.222656 185.082031 688.742188 185.578125 C 689.242188 186.078125 689.621094 186.648438 689.886719 187.292969 C 690.148438 187.941406 690.28125 188.640625 690.28125 189.390625 Z M 691.820313 194.472656 L 691.820313 184.273438 L 695.414063 184.273438 L 698.585938 189.609375 C 698.539063 189.375 698.511719 189.109375 698.496094 188.820313 C 698.480469 188.535156 698.472656 188.15625 698.472656 187.691406 L 698.472656 184.273438 L 702.003906 184.273438 L 702.003906 194.472656 L 698.382813 194.472656 L 695.246094 189.175781 C 695.285156 189.402344 695.308594 189.648438 695.328125 189.914063 C 695.347656 190.175781 695.355469 190.46875 695.355469 190.792969 L 695.355469 194.472656 Z M 703.878906 194.472656 L 703.878906 184.273438 L 710.699219 184.273438 L 710.699219 187.039063 L 707.476563 187.039063 L 707.476563 188.019531 L 710.398438 188.019531 L 710.398438 190.632813 L 707.476563 190.632813 L 707.476563 191.707031 L 710.78125 191.707031 L 710.78125 194.472656 Z M 711.339844 193.601563 L 712.511719 190.746094 C 713.039063 191.113281 713.503906 191.378906 713.914063 191.550781 C 714.328125 191.71875 714.710938 191.804688 715.070313 191.804688 C 715.320313 191.804688 715.519531 191.757813 715.660156 191.660156 C 715.804688 191.566406 715.878906 191.4375 715.878906 191.273438 C 715.878906 190.992188 715.519531 190.773438 714.796875 190.625 C 714.566406 190.574219 714.382813 190.535156 714.253906 190.507813 C 713.492188 190.320313 712.910156 189.992188 712.503906 189.519531 C 712.101563 189.046875 711.898438 188.457031 711.898438 187.75 C 711.898438 186.652344 712.289063 185.761719 713.074219 185.074219 C 713.859375 184.386719 714.890625 184.042969 716.164063 184.042969 C 716.746094 184.042969 717.324219 184.117188 717.890625 184.273438 C 718.453125 184.425781 719.03125 184.65625 719.605469 184.96875 L 718.492188 187.636719 C 718.136719 187.378906 717.785156 187.179688 717.429688 187.039063 C 717.074219 186.90625 716.726563 186.835938 716.394531 186.835938 C 716.136719 186.835938 715.941406 186.878906 715.800781 186.964844 C 715.660156 187.050781 715.59375 187.171875 715.59375 187.324219 C 715.59375 187.609375 716.101563 187.867188 717.117188 188.082031 C 717.28125 188.121094 717.40625 188.148438 717.496094 188.167969 C 718.195313 188.324219 718.746094 188.648438 719.152344 189.136719 C 719.554688 189.621094 719.757813 190.210938 719.757813 190.90625 C 719.757813 192.03125 719.351563 192.957031 718.535156 193.671875 C 717.71875 194.386719 716.660156 194.742188 715.355469 194.742188 C 714.6875 194.742188 714.019531 194.648438 713.347656 194.457031 C 712.679688 194.269531 712.011719 193.984375 711.339844 193.601563 Z M 721.054688 184.273438 L 724.78125 184.273438 L 724.78125 194.472656 L 721.054688 194.472656 Z M 730.273438 190.765625 L 731.796875 190.765625 L 731.484375 189.609375 C 731.328125 189.023438 731.226563 188.570313 731.171875 188.253906 C 731.113281 187.941406 731.078125 187.644531 731.066406 187.367188 L 731.003906 187.367188 C 730.992188 187.644531 730.953125 187.941406 730.898438 188.253906 C 730.84375 188.570313 730.738281 189.023438 730.585938 189.609375 Z M 725.410156 194.472656 L 729.046875 184.273438 L 733.128906 184.273438 L 736.695313 194.472656 L 732.753906 194.472656 L 732.425781 193.191406 L 729.660156 193.191406 L 729.34375 194.472656 Z M 725.410156 194.472656 "/>
<path style=" stroke:none;fill-rule:evenodd;fill:rgb(100%,100%,100%);fill-opacity:1;" d="M 685.878906 147.175781 L 685.878906 148.855469 C 685.203125 149.226563 684.527344 149.597656 683.855469 149.972656 L 683.855469 147.175781 Z M 669.371094 158.855469 C 667.925781 155.074219 666.90625 151.308594 666.679688 147.175781 L 669.445313 147.199219 C 669.671875 150.667969 670.367188 154.058594 671.679688 157.34375 C 670.933594 157.824219 670.113281 158.363281 669.371094 158.855469 Z M 685.878906 114.265625 L 685.863281 124.929688 L 683.867188 124.976563 L 683.855469 114.265625 C 680.3125 117.125 676.570313 121.09375 674.488281 125.179688 L 671.652344 125.25 C 673.691406 120.390625 678.324219 115.34375 682.925781 112.472656 C 673.539063 113.046875 664.914063 117.75 659.324219 125.378906 L 659.222656 125.523438 L 655.488281 125.605469 L 656.007813 124.824219 C 662.460938 115.160156 673.242188 109.375 684.867188 109.375 C 696.273438 109.375 706.871094 114.949219 713.363281 124.296875 L 713.371094 124.3125 L 709.65625 124.398438 C 704.054688 117.335938 695.777344 113.023438 686.8125 112.472656 C 691.214844 115.207031 694.992188 119.503906 697.789063 124.660156 L 694.996094 124.722656 C 692.621094 120.792969 689.550781 117.234375 685.878906 114.265625 Z M 711.121094 161.695313 L 699.039063 161.695313 C 696.433594 167.039063 692.613281 171.867188 686.800781 175.605469 L 686.773438 175.628906 C 694.480469 175.167969 701.722656 171.925781 707.222656 166.433594 C 708.671875 164.984375 709.980469 163.394531 711.121094 161.695313 Z M 700.714844 159.671875 L 712.363281 159.671875 L 712.371094 159.683594 C 713.09375 158.417969 713.726563 157.105469 714.269531 155.757813 L 714.394531 155.722656 L 715.050781 155.539063 L 715.109375 155.527344 L 715.21875 155.496094 L 715.230469 155.492188 L 715.539063 155.40625 L 716.164063 155.238281 L 716.226563 155.222656 L 716.335938 155.191406 L 716.851563 155.054688 L 717.503906 154.878906 L 717.558594 154.863281 L 717.828125 154.792969 L 717.835938 154.792969 L 717.746094 155.070313 C 716.148438 160.191406 713.171875 164.78125 709.378906 168.574219 C 702.855469 175.09375 694.089844 178.722656 684.867188 178.722656 C 678.144531 178.722656 671.621094 176.800781 665.984375 173.136719 L 665.648438 172.917969 L 666.023438 172.761719 L 666.078125 172.738281 L 666.238281 172.671875 L 666.347656 172.625 L 666.550781 172.542969 L 666.5625 172.535156 L 666.617188 172.515625 L 667.15625 172.292969 L 667.265625 172.246094 L 667.320313 172.226563 L 667.699219 172.066406 L 667.753906 172.046875 L 667.808594 172.023438 L 668.660156 171.671875 L 668.675781 171.667969 L 668.699219 171.65625 L 668.730469 171.644531 L 668.785156 171.621094 L 668.886719 171.582031 L 668.894531 171.578125 L 668.949219 171.554688 L 669.105469 171.492188 L 669.113281 171.488281 C 673.355469 173.933594 678.074219 175.335938 682.941406 175.628906 L 682.90625 175.582031 C 679.914063 173.625 677.328125 171.324219 675.210938 168.90625 L 677.703125 167.875 C 679.429688 170.140625 681.480469 172.230469 683.855469 174.101563 L 683.855469 165.742188 L 684.074219 165.660156 L 684.078125 165.65625 L 684.195313 165.613281 L 684.199219 165.613281 L 684.230469 165.601563 L 684.265625 165.589844 L 684.390625 165.542969 L 685.113281 165.277344 L 685.117188 165.273438 L 685.210938 165.238281 L 685.246094 165.226563 L 685.496094 165.132813 L 685.53125 165.121094 L 685.59375 165.097656 L 685.621094 165.089844 L 685.8125 165.019531 L 685.847656 165.007813 L 685.878906 164.996094 L 685.878906 174.101563 C 690.539063 170.425781 693.660156 166.226563 696.070313 161.71875 L 696.363281 161.144531 Z M 665.085938 161.695313 L 658.605469 161.695313 C 659.304688 162.730469 660.066406 163.730469 660.890625 164.6875 L 661.242188 165.097656 L 660.808594 165.421875 C 660.269531 165.824219 659.734375 166.234375 659.199219 166.644531 L 658.816406 166.933594 L 658.503906 166.570313 C 653.839844 161.109375 650.988281 154.375 650.339844 147.21875 L 650.335938 147.171875 L 653.382813 147.171875 C 653.820313 151.605469 655.179688 155.859375 657.359375 159.683594 L 657.371094 159.671875 L 668.027344 159.671875 C 667.039063 160.335938 666.0625 161.011719 665.089844 161.695313 Z M 705.449219 145.382813 L 612.601563 145.359375 L 613.660156 144.527344 L 700.753906 142.898438 C 703.011719 142.957031 704.351563 143.730469 705.449219 145.382813 Z M 694.820313 137.046875 L 623.800781 136.769531 L 624.808594 135.976563 L 690.503906 134.613281 C 692.273438 134.636719 693.941406 135.597656 694.820313 137.046875 Z M 689.59375 133.050781 L 629.023438 132.734375 L 630.113281 131.875 L 685.164063 130.496094 C 687.3125 130.523438 688.8125 131.589844 689.59375 133.050781 Z M 700.132813 141.300781 L 617.925781 141.292969 L 618.984375 140.460938 L 695.675781 138.816406 C 697.945313 138.871094 699.328125 139.773438 700.132813 141.300781 Z M 634.109375 128.804688 L 635.316406 127.855469 L 713.054688 125.976563 C 717.539063 125.957031 725.050781 131.660156 717.628906 141.234375 L 725.664063 141.269531 C 732.453125 141.425781 734.210938 146.316406 737.109375 148.8125 C 715.148438 151.371094 677.085938 165.179688 651.019531 177.261719 C 663.164063 164.035156 682.242188 152.976563 696.117188 145.378906 L 699.902344 145.382813 C 686.695313 152.949219 669.339844 162.253906 660.773438 171.039063 C 683.949219 160.90625 718.84375 148.757813 732.789063 147.464844 C 731.851563 145.457031 728.996094 143.292969 725.683594 143.289063 L 713.03125 143.300781 C 722.320313 132.910156 716.523438 128.566406 712.960938 128.585938 Z M 727.710938 144.808594 C 728.320313 144.808594 728.816406 145.304688 728.816406 145.914063 C 728.816406 146.527344 728.320313 147.023438 727.710938 147.023438 C 727.101563 147.023438 726.605469 146.527344 726.605469 145.914063 C 726.605469 145.304688 727.101563 144.808594 727.710938 144.808594 Z M 727.710938 144.808594 "/>
<path style=" stroke:none;fill-rule:evenodd;fill:rgb(100%,100%,100%);fill-opacity:1;" d="M 48.421875 192.261719 L 48.421875 128.917969 L 58.703125 128.917969 L 58.703125 155.140625 L 81.472656 128.917969 L 94.082031 128.917969 L 68.964844 157.089844 L 97.066406 192.261719 L 83.777344 192.261719 L 58.703125 159.894531 L 58.703125 192.261719 Z M 116.746094 167.367188 L 134.410156 167.367188 L 127.914063 152.925781 C 127.539063 152.011719 127.144531 150.949219 126.746094 149.75 C 126.347656 148.554688 125.933594 147.226563 125.535156 145.75 C 125.195313 147.136719 124.828125 148.421875 124.429688 149.617188 C 124.039063 150.8125 123.644531 151.921875 123.246094 152.925781 Z M 145.21875 192.261719 L 138.039063 175.960938 L 112.941406 175.960938 L 105.585938 192.261719 L 94.777344 192.261719 L 125.445313 126.433594 L 156.085938 192.261719 Z M 162.039063 192.261719 L 162.039063 126.433594 L 202.289063 165.136719 C 203.382813 166.230469 204.492188 167.398438 205.621094 168.636719 C 206.746094 169.878906 207.929688 171.28125 209.171875 172.832031 L 209.171875 128.917969 L 218.652344 128.917969 L 218.652344 194.742188 L 177.617188 155.320313 C 176.523438 154.238281 175.460938 153.117188 174.441406 151.9375 C 173.40625 150.753906 172.449219 149.515625 171.519531 148.214844 L 171.519531 192.261719 Z M 253.664063 137.6875 L 253.664063 192.261719 L 243.382813 192.261719 L 243.382813 137.6875 L 226.550781 137.6875 L 226.550781 128.917969 L 270.40625 128.917969 L 270.40625 137.6875 Z M 329.339844 160.722656 C 329.339844 157.519531 328.746094 154.476563 327.578125 151.597656 C 326.414063 148.71875 324.730469 146.148438 322.546875 143.902344 C 320.40625 141.675781 317.941406 139.976563 315.132813 138.78125 C 312.3125 137.585938 309.34375 136.980469 306.246094 136.980469 C 303.128906 136.980469 300.160156 137.570313 297.339844 138.75 C 294.535156 139.933594 292.023438 141.644531 289.839844 143.902344 C 287.65625 146.121094 285.972656 148.671875 284.820313 151.550781 C 283.664063 154.433594 283.089844 157.488281 283.089844 160.722656 C 283.089844 163.925781 283.664063 166.953125 284.820313 169.804688 C 285.972656 172.652344 287.65625 175.207031 289.839844 177.453125 C 292.023438 179.710938 294.519531 181.425781 297.324219 182.605469 C 300.117188 183.789063 303.101563 184.378906 306.246094 184.378906 C 309.328125 184.378906 312.253906 183.789063 315.039063 182.605469 C 317.820313 181.425781 320.328125 179.710938 322.546875 177.453125 C 324.730469 175.207031 326.414063 172.652344 327.578125 169.789063 C 328.746094 166.910156 329.339844 163.898438 329.339844 160.722656 Z M 340.058594 160.722656 C 340.058594 165.226563 339.21875 169.480469 337.535156 173.480469 C 335.835938 177.496094 333.382813 181.070313 330.152344 184.214844 C 326.902344 187.359375 323.226563 189.769531 319.121094 191.4375 C 315.03125 193.105469 310.734375 193.945313 306.246094 193.945313 C 301.683594 193.945313 297.339844 193.105469 293.191406 191.421875 C 289.058594 189.722656 285.410156 187.332031 282.234375 184.214844 C 278.996094 181.070313 276.550781 177.511719 274.882813 173.523438 C 273.210938 169.550781 272.371094 165.285156 272.371094 160.722656 C 272.371094 156.191406 273.210938 151.921875 274.882813 147.921875 C 276.550781 143.902344 278.996094 140.316406 282.234375 137.140625 C 285.46875 133.996094 289.128906 131.605469 293.222656 129.964844 C 297.3125 128.324219 301.652344 127.5 306.246094 127.5 C 310.789063 127.5 315.105469 128.324219 319.195313 129.964844 C 323.269531 131.605469 326.933594 133.996094 330.152344 137.140625 C 333.382813 140.34375 335.835938 143.960938 337.535156 147.980469 C 339.21875 152.011719 340.058594 156.25 340.058594 160.722656 Z M 362.136719 155.9375 L 364.011719 155.9375 C 369.460938 155.9375 373.078125 155.304688 374.863281 154.035156 C 376.652344 152.765625 377.550781 150.519531 377.550781 147.285156 C 377.550781 143.800781 376.589844 141.347656 374.671875 139.917969 C 372.746094 138.484375 369.191406 137.777344 364.011719 137.777344 L 362.136719 137.777344 Z M 361.515625 163.914063 L 361.515625 192.261719 L 351.859375 192.261719 L 351.859375 128.917969 L 366.210938 128.917969 C 370.414063 128.917969 373.683594 129.195313 376.015625 129.742188 C 378.328125 130.289063 380.3125 131.191406 381.953125 132.460938 C 383.914063 133.996094 385.421875 135.976563 386.496094 138.394531 C 387.5625 140.816406 388.09375 143.460938 388.09375 146.355469 C 388.09375 151.421875 386.867188 155.390625 384.414063 158.269531 C 381.964844 161.136719 378.347656 162.863281 373.5625 163.441406 L 395.359375 192.261719 L 383.753906 192.261719 L 362.664063 163.914063 Z M 361.515625 163.914063 "/>
<path style=" stroke:none;fill-rule:evenodd;fill:rgb(93.359375%,44.309998%,1.960754%);fill-opacity:1;" d="M 400.144531 192.261719 L 400.144531 128.917969 L 427.34375 128.917969 C 436.910156 128.917969 443.910156 130.761719 448.339844 134.453125 C 452.769531 138.144531 454.984375 144.007813 454.984375 152.027344 C 454.984375 159.496094 452.992188 164.945313 449.019531 168.402344 C 445.03125 171.839844 438.726563 173.570313 430.074219 173.570313 L 422.914063 173.570313 L 422.914063 192.261719 Z M 422.996094 146.546875 L 422.996094 157.089844 L 426.558594 157.089844 C 428.730469 157.089844 430.382813 156.632813 431.550781 155.730469 C 432.703125 154.816406 433.277344 153.53125 433.277344 151.863281 C 433.277344 150.195313 432.6875 148.894531 431.507813 147.949219 C 430.3125 147.019531 428.671875 146.546875 426.558594 146.546875 Z M 494.484375 172.683594 C 497.6875 172.683594 500.257813 171.589844 502.203125 169.417969 C 504.15625 167.234375 505.128906 164.355469 505.128906 160.738281 C 505.128906 157.105469 504.15625 154.195313 502.203125 151.980469 C 500.257813 149.78125 497.6875 148.671875 494.484375 148.671875 C 491.265625 148.671875 488.679688 149.78125 486.71875 152.011719 C 484.753906 154.226563 483.777344 157.136719 483.777344 160.738281 C 483.777344 164.355469 484.753906 167.234375 486.71875 169.417969 C 488.679688 171.589844 491.265625 172.683594 494.484375 172.683594 Z M 528.34375 160.722656 C 528.34375 165.359375 527.515625 169.6875 525.878906 173.671875 C 524.238281 177.675781 521.828125 181.246094 518.65625 184.394531 C 515.480469 187.464844 511.835938 189.839844 507.683594 191.480469 C 503.550781 193.121094 499.148438 193.945313 494.484375 193.945313 C 489.746094 193.945313 485.328125 193.121094 481.195313 191.480469 C 477.074219 189.839844 473.414063 187.449219 470.203125 184.304688 C 467.0625 181.246094 464.6875 177.71875 463.078125 173.746094 C 461.464844 169.761719 460.65625 165.417969 460.65625 160.722656 C 460.65625 156.027344 461.464844 151.671875 463.078125 147.65625 C 464.6875 143.652344 467.0625 140.109375 470.203125 137.050781 C 473.382813 133.9375 477.03125 131.574219 481.148438 129.949219 C 485.285156 128.3125 489.714844 127.5 494.484375 127.5 C 499.238281 127.5 503.664063 128.3125 507.804688 129.949219 C 511.921875 131.574219 515.585938 133.9375 518.789063 137.050781 C 521.90625 140.140625 524.269531 143.699219 525.890625 147.699219 C 527.53125 151.714844 528.34375 156.054688 528.34375 160.722656 Z M 532.164063 186.859375 L 539.433594 169.125 C 542.695313 171.398438 545.605469 173.066406 548.160156 174.117188 C 550.714844 175.164063 553.089844 175.695313 555.320313 175.695313 C 556.871094 175.695313 558.113281 175.398438 558.996094 174.808594 C 559.898438 174.21875 560.34375 173.421875 560.34375 172.402344 C 560.34375 170.644531 558.113281 169.316406 553.636719 168.386719 C 552.191406 168.078125 551.066406 167.824219 550.257813 167.648438 C 545.515625 166.496094 541.898438 164.445313 539.386719 161.503906 C 536.878906 158.566406 535.621094 154.90625 535.621094 150.519531 C 535.621094 143.710938 538.058594 138.175781 542.933594 133.90625 C 547.804688 129.640625 554.199219 127.5 562.097656 127.5 C 565.730469 127.5 569.304688 127.972656 572.820313 128.929688 C 576.347656 129.875 579.894531 131.324219 583.464844 133.257813 L 576.554688 149.839844 C 574.355469 148.214844 572.171875 146.992188 569.953125 146.132813 C 567.753906 145.292969 565.613281 144.863281 563.546875 144.863281 C 561.953125 144.863281 560.726563 145.128906 559.871094 145.660156 C 558.996094 146.191406 558.570313 146.945313 558.570313 147.890625 C 558.570313 149.675781 561.730469 151.242188 568.035156 152.601563 C 569.039063 152.835938 569.820313 153 570.367188 153.117188 C 574.726563 154.105469 578.164063 156.101563 580.675781 159.128906 C 583.183594 162.15625 584.441406 165.816406 584.441406 170.113281 C 584.441406 177.128906 581.914063 182.84375 576.851563 187.285156 C 571.785156 191.730469 565.199219 193.945313 557.09375 193.945313 C 552.945313 193.945313 548.78125 193.355469 544.628906 192.175781 C 540.480469 190.992188 536.316406 189.222656 532.164063 186.859375 Z M 532.164063 186.859375 "/>
</g>
</svg>
